<svg width="259" height="401" viewBox="0 0 259 401" fill="none" xmlns="http://www.w3.org/2000/svg">
<path d="M129.298 0C57.8886 0 0 57.2623 0 127.899C0 139.73 1.01501 148.685 4.84867 162.432C7.3858 171.529 11.1383 179.263 16.4975 189.949C44.2904 234.384 64.6489 266.967 64.6489 331.898C64.6489 374.28 64.6489 400.5 129.298 400.5C193.947 400.5 193.947 374.919 193.947 332.537C193.947 267.597 214.493 235.014 241.787 190.569C247.312 179.56 251.161 171.704 253.747 162.432C257.581 148.685 258.596 139.73 258.596 127.899C258.596 57.2623 200.707 0 129.298 0Z" fill="url(#paint0_linear)"/>
<path d="M171.054 218.157C166.529 201.025 146.47 197.106 131.382 206.801C116.294 216.495 92.6999 213.987 92.6999 213.987C92.6999 213.987 102.391 177.636 96.573 150.732M173.964 98.2979C171.452 77.2185 154.864 63 130.57 63C106.276 63 84.1057 78.2277 84.1057 98.298C84.1057 118.368 96.573 126.179 96.573 150.732M96.573 150.732C81.7587 146.695 79.7469 148.957 66 157.682M96.573 150.732C111.387 154.769 131.382 151.866 142.782 143.787" stroke="white" stroke-width="21"/>
<defs>
<linearGradient id="paint0_linear" x1="129.298" y1="0" x2="129.298" y2="430.562" gradientUnits="userSpaceOnUse">
<stop stop-color="#FFFCEE"/>
<stop offset="0.1875" stop-color="#EECD9D" stop-opacity="0.932739"/>
<stop offset="0.708333" stop-color="#5653FF" stop-opacity="0.879687"/>
<stop offset="0.776042" stop-color="#3E65CB"/>
<stop offset="1" stop-color="#536EB4"/>
</linearGradient>
</defs>
</svg>
