<svg width="856" height="1282" viewBox="0 0 856 1282" fill="none" xmlns="http://www.w3.org/2000/svg">
<path d="M35.0247 1082V919.6H56.1367V1069.24H139.889V1082H35.0247ZM202.427 919.6V1082H223.539V919.6H202.427ZM454.874 1009.62H408.938V1019.13H434.922V1061.12C427.962 1065.61 420.847 1068.93 413.578 1071.1C406.309 1073.26 398.034 1074.34 388.754 1074.34C376.535 1074.34 365.863 1072.49 356.738 1068.78C347.613 1065.06 340.034 1059.96 334.002 1053.46C327.97 1046.81 323.407 1039 320.314 1030.03C317.375 1020.91 315.906 1010.93 315.906 1000.1C315.906 989.432 317.298 979.611 320.082 970.64C323.021 961.669 327.351 953.936 333.074 947.44C338.797 940.944 345.757 935.917 353.954 932.36C362.306 928.803 371.973 927.024 382.954 927.024C390.223 927.024 397.029 927.797 403.37 929.344C409.711 930.891 415.357 932.901 420.306 935.376C425.255 937.851 429.277 940.712 432.37 943.96C435.618 947.053 437.706 950.224 438.634 953.472H455.338C453.946 950.069 451.549 946.28 448.146 942.104C444.898 937.773 440.413 933.752 434.69 930.04C428.967 926.328 421.853 923.235 413.346 920.76C404.994 918.131 395.095 916.816 383.65 916.816C370.503 916.816 358.362 918.672 347.226 922.384C336.245 926.096 326.733 931.432 318.69 938.392C310.647 945.352 304.383 953.936 299.898 964.144C295.413 974.197 293.17 985.643 293.17 998.48C293.17 1009.46 294.871 1020.13 298.274 1030.5C301.831 1040.7 307.167 1049.91 314.282 1058.1C321.551 1066.15 330.754 1072.64 341.89 1077.59C353.026 1082.39 366.327 1084.78 381.794 1084.78C393.394 1084.78 403.679 1083.55 412.65 1081.07C421.621 1078.44 429.045 1075.58 434.922 1072.49V1082H454.874V1009.62ZM536.395 1001.26H633.603V1082H654.715V919.6H633.603V990.592H536.395V919.6H515.283V1082H536.395V1001.26ZM789.001 1082V932.36H851.177V919.6H705.713V932.36H767.889V1082H789.001Z" fill="#7482FF"/>
<path d="M108.529 1139.65H126.623V1260H108.529V1139.65ZM265.085 1139.65V1265.48C263.536 1263.49 260.548 1260.28 256.121 1255.85C251.694 1251.42 246.604 1246.33 240.849 1240.58C235.094 1234.82 228.952 1228.79 222.423 1222.48C216.004 1216.18 209.918 1210.2 204.163 1204.56C198.408 1198.8 193.373 1193.71 189.057 1189.28C184.741 1184.75 181.864 1181.54 180.425 1179.66L177.271 1175.34L177.769 1180.65V1260H159.509V1134.01C160.726 1135.56 162.718 1137.77 165.485 1140.65C168.362 1143.52 171.682 1146.9 175.445 1150.77C179.318 1154.53 183.524 1158.63 188.061 1163.06C192.709 1167.48 197.357 1171.96 202.005 1176.5C206.764 1181.04 211.412 1185.52 215.949 1189.95C220.597 1194.26 224.802 1198.3 228.565 1202.07C232.438 1205.83 235.758 1209.15 238.525 1212.03C241.292 1214.9 243.228 1217.06 244.335 1218.5L247.489 1223.15L246.991 1217.5V1139.65H265.085ZM366.918 1146.29L360.444 1161.06C355.907 1159.4 351.37 1158.08 346.832 1157.08C342.406 1156.08 338.145 1155.59 334.05 1155.59C327.078 1155.59 321.49 1157.02 317.284 1159.9C313.19 1162.78 311.142 1166.43 311.142 1170.86C311.142 1174.62 312.636 1177.66 315.624 1179.99C318.612 1182.2 322.32 1184.25 326.746 1186.13C331.173 1187.9 335.987 1189.73 341.188 1191.61C346.39 1193.38 351.204 1195.7 355.63 1198.58C360.057 1201.46 363.764 1205.11 366.752 1209.54C369.74 1213.85 371.234 1219.44 371.234 1226.3C371.234 1231.61 370.238 1236.43 368.246 1240.74C366.365 1244.95 363.488 1248.6 359.614 1251.7C355.852 1254.8 351.093 1257.18 345.338 1258.84C339.694 1260.5 333.054 1261.33 325.418 1261.33C320.549 1261.33 316.122 1261 312.138 1260.33C308.265 1259.67 304.724 1258.84 301.514 1257.84C298.416 1256.74 295.649 1255.57 293.214 1254.36C290.89 1253.14 288.898 1252.03 287.238 1251.04L295.206 1235.27C299.633 1237.81 304.558 1239.86 309.98 1241.41C315.403 1242.96 320.328 1243.73 324.754 1243.73C326.968 1243.73 329.679 1243.46 332.888 1242.9C336.208 1242.35 339.362 1241.41 342.35 1240.08C345.338 1238.64 347.884 1236.76 349.986 1234.44C352.2 1232.11 353.306 1229.18 353.306 1225.64C353.306 1222.43 352.421 1219.72 350.65 1217.5C348.99 1215.18 346.722 1213.19 343.844 1211.53C341.078 1209.76 337.868 1208.21 334.216 1206.88C330.675 1205.44 327.023 1204 323.26 1202.56C319.498 1201.01 315.79 1199.41 312.138 1197.75C308.597 1196.09 305.388 1194.1 302.51 1191.77C299.744 1189.34 297.475 1186.57 295.704 1183.47C294.044 1180.26 293.214 1176.45 293.214 1172.02C293.214 1167.93 294.044 1163.89 295.704 1159.9C297.364 1155.92 299.854 1152.38 303.174 1149.28C306.494 1146.18 310.589 1143.69 315.458 1141.81C320.438 1139.93 326.193 1138.99 332.722 1138.99C336.706 1138.99 340.58 1139.32 344.342 1139.98C348.216 1140.65 351.702 1141.42 354.8 1142.31C357.899 1143.08 360.5 1143.86 362.602 1144.63C364.816 1145.4 366.254 1145.96 366.918 1146.29ZM395.21 1139.65H413.304V1260H395.21V1139.65ZM535.996 1202.4V1252.86C531.348 1255.52 525.814 1257.62 519.396 1259.17C512.977 1260.61 506.448 1261.33 499.808 1261.33C490.29 1261.33 481.714 1259.83 474.078 1256.85C466.552 1253.86 460.078 1249.76 454.656 1244.56C449.233 1239.25 445.083 1233 442.206 1225.8C439.328 1218.61 437.89 1210.75 437.89 1202.23C437.89 1192.83 439.55 1184.25 442.87 1176.5C446.3 1168.64 450.893 1161.89 456.648 1156.25C462.513 1150.61 469.208 1146.23 476.734 1143.14C484.37 1139.93 492.448 1138.32 500.97 1138.32C506.724 1138.32 512.756 1139.1 519.064 1140.65C525.372 1142.08 530.85 1144.19 535.498 1146.95L526.7 1161.73C525.04 1160.73 523.103 1159.85 520.89 1159.07C518.787 1158.3 516.574 1157.63 514.25 1157.08C511.926 1156.53 509.602 1156.14 507.278 1155.92C504.954 1155.59 502.74 1155.42 500.638 1155.42C494.772 1155.42 489.128 1156.58 483.706 1158.91C478.283 1161.23 473.524 1164.44 469.43 1168.53C465.335 1172.63 462.07 1177.44 459.636 1182.98C457.201 1188.51 455.984 1194.49 455.984 1200.9C455.984 1206.77 457.035 1212.3 459.138 1217.5C461.351 1222.71 464.394 1227.3 468.268 1231.28C472.141 1235.27 476.789 1238.42 482.212 1240.74C487.634 1243.07 493.61 1244.23 500.14 1244.23C502.685 1244.23 505.673 1244.01 509.104 1243.57C512.645 1243.01 516.02 1242.13 519.23 1240.91V1218H495.824V1202.4H535.996ZM563.148 1260V1139.65H581.242V1190.78H641.5V1139.65H659.76C659.76 1141.09 659.76 1143.8 659.76 1147.78C659.76 1151.66 659.76 1156.31 659.76 1161.73C659.76 1167.15 659.76 1173.18 659.76 1179.82C659.76 1186.35 659.705 1193.05 659.594 1199.91C659.594 1206.66 659.594 1213.35 659.594 1219.99C659.594 1226.52 659.594 1232.5 659.594 1237.92C659.594 1243.34 659.594 1248.05 659.594 1252.03C659.594 1255.91 659.594 1258.56 659.594 1260H641.5V1208.04H581.242V1260H563.148ZM762.641 1139.65V1156.91H732.263V1260H714.169V1156.91H684.455V1139.65H762.641Z" fill="#79C7FF"/>
<path d="M427.978 7C283.844 7 167 122.765 167 265.568C167 289.486 169.049 307.591 176.787 335.382C181.908 353.774 189.482 369.409 200.299 391.013C256.402 480.848 317.564 556.32 317.564 687.588C317.564 773.27 346.64 805 427.978 805C509.316 805 538.391 774.562 538.391 688.88C538.391 557.593 599.938 482.119 655.028 392.267C666.181 370.01 673.949 354.128 679.169 335.382C686.907 307.591 688.955 289.486 688.955 265.568C688.955 122.765 572.112 7 427.978 7Z" fill="url(#paint0_linear)"/>
<path d="M200.275 390.974C256.385 480.826 317.564 556.301 317.564 687.588C317.564 773.27 346.64 805 427.978 805C509.316 805 538.391 774.562 538.391 688.88C538.391 557.593 599.938 482.119 655.028 392.267C666.181 370.01 673.949 354.128 679.169 335.382C686.907 307.591 688.955 289.486 688.955 265.568C688.955 122.765 572.112 7 427.978 7C283.844 7 167 122.765 167 265.568C167 289.486 169.049 307.591 176.787 335.382C182.006 354.128 189.774 370.01 200.927 392.267" stroke="white" stroke-width="14"/>
<path d="M427.5 73C318.424 73 230 169.471 230 288.474C230 308.405 231.55 323.492 237.406 346.651C241.282 361.978 247.014 375.008 255.2 393.011C297.657 467.874 343.942 530.766 343.942 640.156C343.942 711.558 365.946 738 427.5 738C489.054 738 511.058 712.635 511.058 641.234C511.058 531.828 557.635 468.933 599.325 394.056C607.765 375.509 613.644 362.273 617.594 346.651C623.45 323.492 625 308.405 625 288.474C625 169.471 536.576 73 427.5 73Z" fill="white"/>
<path d="M255.181 392.978C297.644 467.855 343.942 530.751 343.942 640.156C343.942 711.558 365.946 738 427.5 738C489.054 738 511.058 712.635 511.058 641.234C511.058 531.828 557.635 468.933 599.325 394.056C607.765 375.509 613.644 362.273 617.594 346.651C623.45 323.492 625 308.405 625 288.474C625 169.471 536.576 73 427.5 73C318.424 73 230 169.471 230 288.474C230 308.405 231.55 323.492 237.406 346.651C241.356 362.273 247.235 375.509 255.675 394.056" stroke="white" stroke-width="14"/>
<defs>
<linearGradient id="paint0_linear" x1="427.978" y1="7" x2="427.978" y2="816.676" gradientUnits="userSpaceOnUse">
<stop stop-color="#3FF3FF"/>
<stop offset="0.322917" stop-color="#79C7FF"/>
<stop offset="0.697917" stop-color="#7482FF"/>
<stop offset="1" stop-color="#C67DFF"/>
</linearGradient>
</defs>
</svg>
