<svg width="536" height="812" viewBox="0 0 536 812" fill="none" xmlns="http://www.w3.org/2000/svg">
<path d="M267.978 7C123.844 7 7 122.765 7 265.568C7 289.486 9.04873 307.591 16.7867 335.382C21.9077 353.774 29.4817 369.409 40.2989 391.013C96.4025 480.848 157.564 556.32 157.564 687.588C157.564 773.27 186.64 805 267.978 805C349.316 805 378.391 774.562 378.391 688.88C378.391 557.593 439.938 482.119 495.028 392.267C506.181 370.01 513.949 354.128 519.169 335.382C526.907 307.591 528.955 289.486 528.955 265.568C528.955 122.765 412.112 7 267.978 7Z" fill="url(#paint0_linear)"/>
<path d="M40.2746 390.974C96.3848 480.826 157.564 556.301 157.564 687.588C157.564 773.27 186.64 805 267.978 805C349.316 805 378.391 774.562 378.391 688.88C378.391 557.593 439.938 482.119 495.028 392.267C506.181 370.01 513.949 354.128 519.169 335.382C526.907 307.591 528.955 289.486 528.955 265.568C528.955 122.765 412.112 7 267.978 7C123.844 7 7 122.765 7 265.568C7 289.486 9.04873 307.591 16.7867 335.382C22.0062 354.128 29.7741 370.01 40.9271 392.267" stroke="white" stroke-width="14"/>
<path d="M267.5 73C158.424 73 70 169.471 70 288.474C70 308.405 71.5504 323.492 77.4063 346.651C81.2817 361.978 87.0135 375.008 95.1997 393.011C137.657 467.874 183.942 530.766 183.942 640.156C183.942 711.558 205.946 738 267.5 738C329.054 738 351.058 712.635 351.058 641.234C351.058 531.828 397.635 468.933 439.325 394.056C447.765 375.509 453.644 362.273 457.594 346.651C463.45 323.492 465 308.405 465 288.474C465 169.471 376.576 73 267.5 73Z" fill="white"/>
<path d="M95.1812 392.978C137.644 467.855 183.942 530.751 183.942 640.156C183.942 711.558 205.946 738 267.5 738C329.054 738 351.058 712.635 351.058 641.234C351.058 531.828 397.635 468.933 439.325 394.056C447.765 375.509 453.644 362.273 457.594 346.651C463.45 323.492 465 308.405 465 288.474C465 169.471 376.576 73 267.5 73C158.424 73 70 169.471 70 288.474C70 308.405 71.5504 323.492 77.4063 346.651C81.3562 362.273 87.2348 375.509 95.675 394.056" stroke="white" stroke-width="14"/>
<defs>
<linearGradient id="paint0_linear" x1="267.978" y1="7" x2="267.978" y2="816.676" gradientUnits="userSpaceOnUse">
<stop stop-color="#3FE8FF"/>
<stop offset="0.322917" stop-color="#79C7FF"/>
<stop offset="0.697917" stop-color="#7482FF"/>
<stop offset="1" stop-color="#C67DFF"/>
</linearGradient>
</defs>
</svg>

