<?xml version="1.0" standalone="no"?>
<!DOCTYPE svg PUBLIC "-//W3C//DTD SVG 20010904//EN"
 "http://www.w3.org/TR/2001/REC-SVG-20010904/DTD/svg10.dtd">
<svg version="1.0" xmlns="http://www.w3.org/2000/svg"
 width="802.000000pt" height="802.000000pt" viewBox="0 0 802.000000 802.000000"
 preserveAspectRatio="xMidYMid meet">
<metadata>
Created by potrace 1.11, written by Peter Selinger 2001-2013
</metadata>
<g transform="translate(0.000000,802.000000) scale(0.100000,-0.100000)"
fill="#000000" stroke="none">
<path d="M3809 8016 c-2 -2 -35 -6 -74 -10 -38 -4 -81 -8 -95 -11 -94 -14
-171 -27 -205 -36 -22 -6 -47 -12 -55 -14 -74 -14 -313 -93 -392 -129 -29 -13
-57 -25 -63 -27 -11 -3 -99 -49 -205 -107 -90 -49 -270 -172 -365 -250 -110
-90 -278 -260 -359 -362 -37 -47 -74 -93 -82 -102 -7 -10 -31 -44 -51 -75 -21
-32 -40 -60 -43 -63 -24 -22 -210 -381 -210 -406 0 -5 -6 -20 -13 -35 -22 -40
-46 -117 -39 -123 3 -3 -1 -6 -8 -6 -7 0 -11 -3 -8 -6 4 -3 0 -21 -8 -40 -8
-19 -14 -35 -13 -36 1 -2 -4 -23 -11 -48 -15 -57 -21 -81 -24 -100 -1 -8 -6
-25 -10 -36 -3 -12 -9 -35 -11 -50 -2 -16 -7 -42 -10 -59 -25 -140 -30 -216
-29 -445 1 -200 5 -277 19 -340 3 -14 7 -38 9 -55 3 -16 9 -50 15 -75 6 -25
13 -58 16 -75 4 -16 9 -37 12 -45 3 -8 8 -26 10 -40 2 -14 6 -32 10 -40 3 -8
7 -18 8 -22 2 -5 4 -10 5 -13 4 -7 5 -15 14 -57 5 -21 12 -38 18 -38 5 0 7 -4
3 -9 -3 -5 -1 -12 5 -16 5 -3 10 -13 10 -21 0 -17 47 -121 128 -282 88 -175
92 -182 101 -182 5 0 12 -11 15 -25 4 -14 11 -25 16 -25 6 0 10 -5 10 -10 0
-6 12 -29 27 -53 15 -23 34 -54 43 -68 14 -24 97 -162 123 -204 7 -11 14 -22
17 -25 3 -3 16 -26 29 -52 14 -26 29 -44 34 -41 6 3 7 1 4 -5 -6 -9 17 -66 33
-82 8 -8 34 -56 108 -205 71 -142 104 -213 154 -335 6 -14 15 -34 19 -45 14
-30 90 -248 94 -265 10 -48 18 -70 26 -70 5 0 6 -6 3 -13 -2 -7 2 -32 10 -55
8 -23 13 -42 11 -42 -2 0 1 -15 6 -32 6 -18 12 -44 15 -58 3 -13 12 -56 20
-95 8 -38 17 -86 20 -105 2 -19 6 -42 9 -50 2 -8 7 -42 11 -75 10 -84 12 -100
14 -100 1 0 3 -20 5 -45 2 -25 6 -74 10 -110 10 -124 16 -277 20 -590 5 -304
8 -384 20 -456 3 -19 8 -51 11 -71 3 -21 14 -69 24 -108 97 -362 355 -533 895
-592 147 -16 715 -7 785 12 8 2 35 7 60 10 231 33 436 122 558 242 72 72 156
226 178 328 44 199 46 230 59 915 2 124 4 225 5 225 1 0 3 23 6 50 14 184 27
286 39 304 3 5 1 13 -5 16 -7 4 -8 11 -1 18 5 7 12 30 15 52 10 64 26 140 49
238 8 31 12 57 9 57 -2 0 1 7 8 15 7 8 10 24 7 35 -3 11 -1 20 3 20 5 0 12 17
16 38 4 20 13 53 20 72 8 19 15 44 17 55 1 11 6 25 9 31 4 6 15 33 24 60 9 27
21 60 27 74 5 14 11 30 12 35 2 6 4 17 6 25 2 8 8 18 12 21 4 3 9 16 10 27 1
12 4 22 7 22 7 0 35 72 32 83 -1 4 3 7 8 7 6 0 10 5 10 10 0 6 13 39 29 73 16
34 29 66 29 71 0 5 4 12 9 15 4 3 32 53 61 111 29 58 64 124 77 148 14 23 22
42 19 42 -2 0 4 10 16 22 11 12 20 27 20 33 0 6 7 20 15 30 9 11 48 75 88 143
40 68 80 135 89 150 10 15 21 34 25 42 5 8 23 38 41 67 18 29 33 55 32 59 -1
4 2 10 7 13 9 6 57 81 59 91 0 3 25 55 55 115 29 61 54 112 55 115 0 3 11 26
23 52 12 26 22 50 21 53 0 3 7 19 16 36 8 17 26 65 40 107 25 78 27 85 43 157
45 202 43 192 56 295 14 119 20 360 10 485 -6 86 -15 171 -20 193 -3 12 -7 30
-9 40 -2 9 -7 39 -10 67 -4 27 -11 54 -16 61 -6 6 -7 13 -5 16 3 3 -4 39 -15
79 -26 91 -24 84 -40 142 -7 26 -15 47 -19 47 -4 0 -8 11 -9 25 -1 13 -13 48
-27 77 -14 28 -25 55 -25 60 0 8 -102 219 -120 248 -109 177 -144 230 -208
314 -42 56 -140 164 -217 242 -252 252 -462 396 -818 558 -156 72 -439 150
-657 182 -25 3 -58 8 -75 11 -38 5 -481 14 -486 9z m2272 -3849 c-10 -9 -11
-8 -5 6 3 10 9 15 12 12 3 -3 0 -11 -7 -18z m-2276 -987 c3 -5 1 -10 -4 -10
-6 0 -11 5 -11 10 0 6 2 10 4 10 3 0 8 -4 11 -10z"/>
</g>
</svg>
